<?xml version="1.0" standalone="no"?>
<!DOCTYPE svg PUBLIC "-//W3C//DTD SVG 20010904//EN"
 "http://www.w3.org/TR/2001/REC-SVG-20010904/DTD/svg10.dtd">
<svg version="1.0" xmlns="http://www.w3.org/2000/svg"
 width="1280.000000pt" height="1280.000000pt" viewBox="0 0 1280.000000 1280.000000"
 preserveAspectRatio="xMidYMid meet">
<g transform="translate(0.000000,1280.000000) scale(0.100000,-0.100000)"
fill="#000000" stroke="none">
<path d="M10580 11495 c-7 -8 -18 -15 -24 -15 -24 0 -107 -84 -164 -167 -56
-83 -102 -169 -201 -373 -43 -90 -101 -201 -311 -595 -21 -38 -66 -124 -100
-190 -146 -279 -174 -333 -210 -400 -20 -38 -60 -113 -87 -165 -28 -52 -71
-133 -95 -180 -25 -47 -76 -143 -113 -215 -37 -71 -89 -170 -115 -220 -169
-321 -467 -890 -586 -1120 -35 -66 -68 -120 -76 -120 -16 0 -74 95 -353 581
-119 208 -228 389 -242 402 -13 12 -36 22 -51 22 -15 0 -164 -23 -332 -50
-168 -28 -334 -55 -370 -60 -36 -6 -90 -15 -120 -20 -207 -36 -1121 -172
-1405 -210 -38 -5 -106 -14 -150 -20 -408 -55 -963 -114 -1410 -150 -60 -5
-168 -14 -240 -20 -259 -22 -376 -31 -705 -55 -381 -29 -551 -41 -765 -55 -82
-5 -211 -14 -285 -20 -74 -5 -196 -12 -270 -16 -148 -7 -194 -20 -211 -58 -15
-31 -15 -30 250 -431 411 -622 472 -718 464 -725 -4 -4 -48 -17 -98 -29 -242
-57 -364 -81 -520 -105 -196 -31 -270 -42 -358 -56 -34 -5 -109 -17 -167 -25
-625 -88 -839 -124 -910 -153 -30 -12 -80 -66 -80 -87 0 -8 8 -25 17 -37 42
-52 163 -190 368 -423 1004 -1139 1621 -1888 2080 -2525 341 -474 651 -925
1072 -1560 536 -807 565 -850 598 -868 17 -10 32 -20 33 -24 5 -11 52 -10 52
1 0 5 15 12 33 15 39 7 117 33 867 280 899 298 1336 436 1765 557 22 7 54 16
70 20 420 121 1013 250 1720 374 50 9 113 20 140 25 55 10 558 96 645 110 30
5 82 14 115 19 79 13 279 48 371 66 188 36 207 98 74 242 -33 36 -60 70 -60
74 0 10 23 16 110 28 144 21 639 91 705 101 242 34 663 90 908 120 42 6 112
14 155 20 42 5 129 16 192 24 63 8 147 18 185 22 86 8 128 24 150 58 16 24 16
27 -1 54 -11 16 -66 71 -124 122 -58 52 -107 97 -110 100 -3 3 -77 70 -165
150 -636 576 -1061 976 -1455 1370 -628 628 -929 961 -1201 1330 -30 41 -79
108 -109 148 -124 168 -359 518 -360 534 0 10 11 37 24 60 13 24 56 106 96
183 40 77 76 145 80 150 4 6 35 64 70 130 34 66 83 158 108 205 24 47 67 128
95 180 27 52 67 127 87 165 21 39 63 120 95 180 96 185 166 317 205 390 51 95
124 234 205 390 78 149 147 281 215 410 26 50 80 153 120 230 40 77 92 176
115 220 70 132 202 384 335 640 40 77 95 176 121 221 111 185 179 364 179 471
0 57 -5 76 -30 119 -45 80 -145 156 -260 199 -25 10 -59 23 -77 31 -44 20
-196 19 -213 -1z m193 -130 c112 -29 230 -110 257 -176 17 -41 2 -118 -44
-228 -39 -92 -120 -243 -138 -259 -29 -24 -244 18 -329 64 -77 43 -184 129
-187 152 -4 26 94 220 159 317 47 70 101 128 129 138 29 10 96 7 153 -8z
m-408 -605 c73 -54 90 -80 66 -105 -5 -6 -46 -82 -91 -170 -46 -88 -100 -191
-120 -230 -21 -38 -93 -176 -160 -305 -176 -338 -237 -455 -285 -545 -23 -44
-75 -143 -115 -220 -40 -77 -94 -180 -120 -230 -26 -49 -78 -148 -115 -220
-37 -71 -91 -175 -120 -230 -58 -110 -243 -464 -338 -645 -33 -63 -81 -155
-107 -205 -26 -49 -78 -148 -115 -220 -69 -132 -131 -252 -235 -450 -54 -103
-88 -168 -248 -475 -35 -69 -81 -156 -102 -195 -21 -38 -64 -122 -97 -185 -33
-63 -85 -162 -115 -220 -31 -58 -88 -168 -128 -245 -93 -180 -91 -177 -140
-160 -21 7 -59 17 -84 20 -26 4 -49 12 -52 17 -3 5 7 35 22 66 57 120 330 664
411 822 47 91 130 253 186 360 55 107 128 249 162 315 34 66 100 192 145 280
45 88 104 201 130 250 26 50 78 149 115 220 103 198 188 361 295 565 54 102
128 244 165 315 37 72 89 171 115 220 26 50 71 135 100 190 95 181 162 309
210 400 26 50 71 135 100 190 29 55 70 132 90 170 21 39 68 129 105 200 37 72
80 153 95 180 15 28 58 109 95 180 37 72 80 153 95 180 15 28 42 78 60 113 18
34 37 61 42 60 5 -2 42 -28 83 -58z m265 -131 c41 -10 92 -19 112 -19 20 0 40
-4 43 -10 3 -5 -16 -52 -43 -102 -27 -51 -77 -147 -112 -213 -109 -209 -181
-347 -230 -440 -98 -186 -149 -284 -220 -420 -40 -77 -92 -176 -115 -220 -23
-44 -71 -134 -105 -200 -34 -66 -79 -151 -100 -190 -21 -38 -68 -128 -105
-200 -37 -71 -80 -152 -95 -180 -15 -27 -58 -108 -95 -180 -37 -71 -80 -152
-95 -180 -15 -27 -56 -104 -90 -170 -35 -66 -85 -163 -113 -215 -47 -89 -66
-125 -164 -310 -22 -41 -62 -115 -88 -165 -65 -124 -132 -248 -170 -320 -18
-33 -61 -114 -95 -180 -35 -66 -66 -124 -70 -130 -4 -5 -36 -64 -70 -130 -34
-66 -66 -124 -70 -130 -4 -5 -33 -59 -65 -120 -32 -60 -66 -123 -75 -140 -9
-16 -39 -70 -65 -120 -27 -49 -61 -112 -77 -138 -15 -26 -28 -50 -28 -52 0 -2
-17 -34 -39 -72 -21 -37 -53 -95 -71 -128 -74 -134 -122 -215 -129 -215 -8 0
-168 105 -185 121 -5 5 -5 13 1 21 6 7 72 132 148 278 76 146 157 301 180 345
40 76 75 142 230 440 37 72 89 171 115 220 26 50 80 153 120 230 40 77 92 176
115 220 86 162 219 416 330 630 37 72 89 171 115 220 26 50 80 153 120 230 40
77 94 181 120 230 97 184 159 304 230 440 40 77 112 214 160 305 48 91 120
228 160 305 97 187 183 350 240 460 26 50 78 149 115 220 225 433 211 409 234
400 9 -4 50 -15 91 -26z m-2603 -2359 c223 -387 300 -518 362 -614 l44 -69
-55 -106 c-30 -58 -101 -196 -158 -306 -445 -857 -829 -1630 -867 -1745 -59
-177 -113 -427 -158 -729 -33 -215 -33 -264 0 -296 27 -28 37 -30 68 -14 76
41 467 402 625 579 69 77 212 275 212 294 0 2 19 37 43 78 24 40 59 102 79
138 20 36 69 126 110 200 41 74 92 167 113 205 21 39 50 93 65 120 15 28 49
91 75 140 26 50 56 104 65 120 10 17 46 84 80 150 35 66 66 125 70 130 4 6 33
60 65 120 31 61 61 114 65 119 4 4 32 -27 61 -70 100 -150 263 -380 392 -554
268 -360 516 -638 1072 -1199 526 -530 815 -805 1575 -1495 162 -148 295 -273
295 -279 0 -12 -13 -14 -200 -36 -98 -12 -161 -20 -320 -41 -44 -6 -168 -22
-275 -35 -295 -38 -1139 -156 -1400 -196 -36 -6 -83 -7 -104 -4 -29 4 -51 0
-80 -14 -26 -12 -139 -35 -301 -60 -412 -66 -834 -145 -1069 -201 -47 -11
-125 -29 -173 -41 -249 -58 -699 -173 -823 -209 -19 -5 -125 -35 -235 -65
-110 -30 -213 -59 -230 -63 -16 -5 -48 -14 -70 -21 -382 -110 -707 -205 -890
-261 -319 -97 -305 -94 -320 -79 -13 13 -135 190 -378 549 -47 69 -309 454
-584 856 -274 401 -551 809 -616 905 -65 95 -222 327 -349 514 -213 315 -1003
1500 -1442 2165 -610 924 -706 1072 -702 1079 3 5 61 11 128 15 68 4 182 11
253 16 72 5 200 14 285 20 332 23 981 71 1100 80 69 6 177 15 240 20 365 30
414 34 745 65 196 18 583 60 700 75 44 6 112 15 150 20 116 15 219 29 445 60
118 17 233 32 255 36 47 6 140 20 228 34 34 5 154 23 267 40 113 17 273 42
355 55 452 73 613 99 735 120 74 13 146 23 159 22 21 -2 52 -50 218 -337z
m-5580 -1618 c1094 -1649 1391 -2091 2089 -3114 176 -257 400 -587 499 -733
495 -729 732 -1069 757 -1083 30 -18 6 -23 333 78 179 55 448 136 503 151 17
5 47 13 65 18 29 8 270 78 342 99 65 20 386 109 670 187 394 108 1006 252
1345 316 163 31 173 33 560 98 l365 62 25 -29 c75 -87 110 -132 110 -141 0 -5
-24 -14 -52 -20 -58 -12 -317 -57 -413 -72 -72 -11 -769 -130 -840 -144 -16
-3 -102 -18 -190 -35 -333 -61 -494 -93 -720 -141 -141 -30 -168 -36 -370 -84
-106 -25 -338 -85 -400 -103 -16 -5 -48 -14 -70 -21 -252 -72 -480 -140 -655
-195 -58 -19 -136 -44 -175 -55 -154 -48 -714 -231 -1125 -368 -510 -169 -709
-233 -726 -233 -7 0 -91 118 -186 263 -333 506 -856 1285 -1052 1566 -767
1101 -1161 1589 -2659 3294 -77 87 -135 162 -131 166 10 9 161 34 439 75 94
14 220 33 280 41 61 9 169 25 240 36 72 10 162 24 200 29 147 22 441 72 475
80 19 5 78 19 130 31 52 12 133 31 180 43 47 12 90 21 95 19 6 -2 34 -38 62
-81z m5142 -1252 c46 -11 100 -28 120 -37 56 -26 202 -124 208 -139 10 -27
-214 -287 -352 -408 l-67 -59 -32 16 c-17 9 -52 25 -78 36 -27 11 -48 23 -48
25 0 11 61 302 76 365 13 54 33 122 59 209 6 16 15 15 114 -8z"/>
</g>
</svg>
